<svg width="700" height="700" xmlns="http://www.w3.org/2000/svg">
  <style>
    #background {
      fill: #95134e;
      stroke: #fcfcfc;
    }
    #figure {
      fill: #fcfcfc;
    }
    @media (prefers-color-scheme: dark) {
      #background {
        fill: #4bb2f9;
        stroke: #3c3c3c;
      }
      #figure {
        fill: #3c3c3c;
      }
    }
  </style>
  <circle id="background" r="300" cy="340" cx="360" stroke-width="2" />
  <g transform="translate(0.000000,700.000000) scale(0.100000,-0.100000)">
    <path id="figure" d="m4706,5585c-195,-196 -427,-446 -435,-469c-2,-6 -28,-40 -58,-76c-30,-36 -60,-74 -69,-85c-8,-11 -35,-45 -60,-75c-25,-30 -61,-77 -79,-105c-19,-27 -66,-94 -104,-148c-39,-54 -71,-100 -71,-103c0,-3 -17,-28 -38,-57c-20,-29 -42,-60 -47,-69c-6,-9 -23,-36 -39,-60c-16,-24 -39,-59 -51,-78c-12,-19 -38,-60 -58,-91c-20,-30 -37,-59 -37,-63c0,-5 -13,-25 -30,-46c-16,-20 -34,-48 -40,-61c-6,-13 -28,-51 -50,-84c-22,-33 -45,-71 -52,-85c-7,-14 -29,-48 -50,-76c-21,-28 -38,-54 -38,-58c0,-15 -83,-115 -91,-110c-5,3 -9,42 -9,88c0,46 -4,96 -9,112c-5,16 -15,128 -21,248c-7,121 -16,227 -20,235c-5,9 -14,76 -20,150c-7,74 -16,141 -21,150c-4,9 -13,36 -18,61c-21,93 -42,176 -50,195c-5,11 -15,36 -21,55c-20,57 -84,182 -125,246c-41,64 -172,204 -191,204c-6,0 -14,17 -17,39c-9,71 -66,172 -134,239c-35,34 -70,62 -78,62c-8,0 -15,4 -15,8c0,5 -19,15 -42,22c-24,8 -48,18 -55,23c-6,4 -46,11 -88,14l-75,6l-63,-59c-35,-32 -75,-67 -88,-77c-13,-10 -36,-27 -52,-38c-15,-11 -27,-26 -27,-32c0,-7 -11,-22 -24,-35c-14,-12 -34,-44 -46,-70c-12,-26 -27,-58 -33,-71c-20,-41 -13,-581 8,-716c16,-93 19,-187 21,-623c1,-316 6,-517 12,-525c5,-6 13,-37 16,-68c4,-31 17,-74 29,-95c17,-32 22,-63 28,-184c9,-180 24,-317 43,-395c8,-33 18,-87 21,-120c4,-33 11,-64 15,-70c4,-5 13,-50 20,-100c7,-49 16,-94 20,-100c4,-5 13,-43 21,-83c7,-40 16,-75 21,-78c4,-3 8,-18 8,-33c0,-15 9,-61 19,-102c11,-41 23,-107 27,-147c3,-40 11,-75 15,-78c5,-3 9,-16 9,-30c0,-19 6,-26 29,-30c31,-7 61,-52 61,-92c0,-12 5,-24 10,-27c12,-8 13,-107 1,-120c-5,-6 -11,-31 -13,-56c-6,-53 3,-62 70,-74c49,-8 86,-36 128,-97c33,-48 108,-127 139,-145c11,-7 31,-18 45,-25c14,-7 27,-15 30,-18c6,-7 45,-22 110,-41c69,-21 203,-17 275,9c191,68 305,174 404,377c61,124 62,126 60,165c-1,19 2,76 6,125l8,90l94,98c51,55 93,105 93,113c0,8 4,14 9,14c11,0 82,117 117,195c15,33 30,67 35,76c4,9 11,34 15,55c9,50 77,132 112,136c16,2 31,13 39,28c68,142 176,359 186,375c7,11 29,46 49,77c21,32 38,60 38,63c0,8 75,121 108,163c18,22 32,43 32,47c0,5 16,27 35,51c19,23 35,47 35,53c0,7 7,14 15,17c8,4 15,11 15,16c0,5 20,33 43,61c24,29 46,59 50,67c3,8 42,56 86,107c45,51 81,95 81,99c0,8 172,208 183,212c4,2 7,8 7,14c0,5 35,49 78,98c42,49 89,104 103,122c15,18 56,68 93,110c36,42 66,80 66,83c0,4 9,17 19,29c11,11 47,53 80,92c61,72 61,72 61,137c0,57 5,74 49,158c26,52 51,111 55,133c4,21 11,46 16,55c5,9 14,50 20,91c6,41 14,83 17,93c4,16 2,17 -15,6c-16,-10 -24,-10 -35,-1c-16,14 -77,127 -77,145c-1,6 -9,30 -20,52c-11,22 -19,45 -20,51c0,10 -24,72 -50,129c-5,11 -14,34 -20,50c-32,89 -29,86 -95,78c-91,-12 -157,-7 -206,15c-24,11 -55,23 -69,27c-14,4 -30,11 -36,16c-6,5 -46,13 -89,17l-78,9l-201,-202z"/>
  </g>
</svg>
